<svg width="9" height="15" viewBox="0 0 9 15" fill="none" xmlns="http://www.w3.org/2000/svg">
<path fill-rule="evenodd" clip-rule="evenodd" d="M1.83532 7.50003L8.03756 13.7023C8.33445 13.9992 8.33445 14.4805 8.03756 14.7774C7.74068 15.0743 7.25933 15.0743 6.96244 14.7774L0.222663 8.03762C-0.0598084 7.75515 -0.0735202 7.30569 0.181521 7.00701C0.190357 6.99666 0.199516 6.98649 0.208997 6.97652C0.21348 6.9718 0.218036 6.96713 0.222663 6.9625C0.222674 6.96249 0.222685 6.96248 0.222696 6.96247L6.9625 0.222659C7.25938 -0.07422 7.74072 -0.0742195 8.0376 0.22266C8.33448 0.519539 8.33448 1.00087 8.0376 1.29775L1.83532 7.50003Z" fill="white"/>
</svg>
