<svg width="13" height="13" viewBox="0 0 13 13" fill="none" xmlns="http://www.w3.org/2000/svg">
<path fill-rule="evenodd" clip-rule="evenodd" d="M1.17957 9.93176C1.30178 10.569 1.86222 11.0505 2.53511 11.0505H10.4636C11.1365 11.0505 11.697 10.569 11.8192 9.93176C11.3918 10.2033 10.8847 10.3605 10.3409 10.3605H2.65786C2.11404 10.3605 1.60694 10.2033 1.17957 9.93176Z" fill="#FF931E"/>
<path fill-rule="evenodd" clip-rule="evenodd" d="M3.10901 11.4158C3.45157 11.9761 4.06909 12.3501 4.77397 12.3501H8.22834C8.93321 12.3501 9.55073 11.9761 9.89329 11.4158C9.5383 11.5976 9.13602 11.7001 8.70978 11.7001H4.29253C3.86629 11.7001 3.464 11.5976 3.10901 11.4158Z" fill="#FF931E"/>
<path fill-rule="evenodd" clip-rule="evenodd" d="M3 0C1.34315 0 0 1.34315 0 3V6.75C0 8.40685 1.34315 9.75 3 9.75H10C11.6569 9.75 13 8.40685 13 6.75V3C13 1.34315 11.6569 0 10 0H3ZM4.55 6.07682C4.55 6.84464 5.37948 7.32601 6.04614 6.94506L7.58057 6.06824C8.25239 5.68435 8.25239 4.71565 7.58057 4.33176L6.04614 3.45494C5.37948 3.07399 4.55 3.55536 4.55 4.32318V6.07682Z" fill="#FF931E"/>
</svg>
