<svg width="25" height="25" viewBox="0 0 25 25" fill="none" xmlns="http://www.w3.org/2000/svg">
<path d="M12.4999 0C9.18475 0 6.00534 1.31695 3.66115 3.66115C1.31695 6.00534 0 9.18475 0 12.4999C0 15.8151 1.31695 18.9945 3.66115 21.3387C6.00534 23.6829 9.18475 24.9999 12.4999 24.9999C15.8151 24.9999 18.9945 23.6829 21.3387 21.3387C23.6829 18.9945 24.9999 15.8151 24.9999 12.4999C24.9999 9.18475 23.6829 6.00534 21.3387 3.66115C18.9945 1.31695 15.8151 0 12.4999 0Z" fill="#0379E5"/>
<path d="M14.1919 15.8131H17.4268L17.9347 12.5269H14.1913V10.7309C14.1913 9.36574 14.6373 8.15522 15.9143 8.15522H17.9663V5.28746C17.6057 5.23878 16.8432 5.1322 15.4024 5.1322C12.3939 5.1322 10.6301 6.72101 10.6301 10.3407V12.5269H7.53735V15.8131H10.6301V24.8453C11.2426 24.9374 11.863 24.9999 12.4998 24.9999C13.0755 24.9999 13.6373 24.9472 14.1919 24.8722V15.8131Z" fill="white"/>
</svg>
