<svg width="24" height="22" viewBox="0 0 24 22" fill="none" xmlns="http://www.w3.org/2000/svg">
<path d="M14.8974 1.98169L15.4406 1.45345V1.45345L14.8974 1.98169ZM9.10268 1.9817L9.64593 2.50994L9.10268 1.9817ZM22.6648 9.96979L22.1216 10.498L22.6648 9.96979ZM20.0826 13.3991V12.6413C19.6641 12.6413 19.3248 12.9806 19.3248 13.3991H20.0826ZM13.8934 21.2291H13.1356C13.1356 21.6475 13.4749 21.9868 13.8934 21.9868V21.2291ZM9.85209 21.2291V21.9868C10.2706 21.9868 10.6098 21.6475 10.6098 21.2291H9.85209ZM3.91748 13.3991H4.67522C4.67522 12.9806 4.33597 12.6413 3.91748 12.6413V13.3991ZM1.33522 9.96979L1.87847 10.498L1.33522 9.96979ZM15.4406 1.45345C13.5562 -0.484484 10.4438 -0.48448 8.55943 1.45345L9.64593 2.50994C10.9353 1.18399 13.0648 1.18399 14.3541 2.50994L15.4406 1.45345ZM23.2081 9.44154L15.4406 1.45345L14.3541 2.50994L22.1216 10.498L23.2081 9.44154ZM21.2162 14.1568C23.6727 14.1568 24.9206 11.2027 23.2081 9.44154L22.1216 10.498C22.9 11.2986 22.3328 12.6413 21.2162 12.6413V14.1568ZM20.0826 14.1568H21.2162V12.6413H20.0826V14.1568ZM20.8403 18.1981V13.3991H19.3248V18.1981H20.8403ZM17.0516 21.9868C19.1441 21.9868 20.8403 20.2905 20.8403 18.1981H19.3248C19.3248 19.4536 18.3071 20.4713 17.0516 20.4713V21.9868ZM13.8934 21.9868H17.0516V20.4713H13.8934V21.9868ZM13.1356 17.6267V21.2291H14.6511V17.6267H13.1356ZM11.8727 16.3638C12.5702 16.3638 13.1356 16.9292 13.1356 17.6267H14.6511C14.6511 16.0922 13.4072 14.8483 11.8727 14.8483V16.3638ZM10.6098 17.6267C10.6098 16.9292 11.1752 16.3638 11.8727 16.3638V14.8483C10.3383 14.8483 9.09435 16.0922 9.09435 17.6267H10.6098ZM10.6098 21.2291V17.6267H9.09435V21.2291H10.6098ZM6.94843 21.9868H9.85209V20.4713H6.94843V21.9868ZM3.15974 18.1981C3.15974 20.2905 4.856 21.9868 6.94843 21.9868V20.4713C5.69297 20.4713 4.67522 19.4536 4.67522 18.1981H3.15974ZM3.15974 13.3991V18.1981H4.67522V13.3991H3.15974ZM2.78389 14.1568H3.91748V12.6413H2.78389V14.1568ZM0.791967 9.44154C-0.920585 11.2027 0.327333 14.1568 2.78389 14.1568V12.6413C1.66728 12.6413 1.10004 11.2986 1.87847 10.498L0.791967 9.44154ZM8.55943 1.45345L0.791967 9.44154L1.87847 10.498L9.64593 2.50994L8.55943 1.45345Z" fill="white"/>
</svg>
