<svg width="13" height="13" viewBox="0 0 13 13" fill="none" xmlns="http://www.w3.org/2000/svg">
<path fill-rule="evenodd" clip-rule="evenodd" d="M1.17969 9.93164C1.3019 10.5689 1.86234 11.0504 2.53524 11.0504H10.4638C11.1367 11.0504 11.6971 10.5689 11.8193 9.93164C11.3919 10.2032 10.8848 10.3604 10.341 10.3604H2.65798C2.11416 10.3604 1.60706 10.2032 1.17969 9.93164Z" fill="white"/>
<path fill-rule="evenodd" clip-rule="evenodd" d="M3.10889 11.4155C3.45145 11.9759 4.06897 12.3499 4.77384 12.3499H8.22821C8.93309 12.3499 9.55061 11.9759 9.89317 11.4155C9.53818 11.5973 9.13589 11.6999 8.70966 11.6999H4.2924C3.86616 11.6999 3.46388 11.5973 3.10889 11.4155Z" fill="white"/>
<path fill-rule="evenodd" clip-rule="evenodd" d="M3 0C1.34315 0 0 1.34315 0 3V6.75C0 8.40685 1.34315 9.75 3 9.75H10C11.6569 9.75 13 8.40685 13 6.75V3C13 1.34315 11.6569 0 10 0H3ZM4.55 6.07682C4.55 6.84464 5.37948 7.32601 6.04614 6.94506L7.58057 6.06824C8.25239 5.68435 8.25239 4.71565 7.58057 4.33176L6.04614 3.45494C5.37948 3.07399 4.55 3.55536 4.55 4.32318V6.07682Z" fill="white"/>
</svg>
