<svg width="18" height="18" viewBox="0 0 18 18" fill="none" xmlns="http://www.w3.org/2000/svg">
<path d="M17.6971 17.6971C18.0952 17.2963 18.0941 16.649 17.6946 16.2495L15.5372 14.0921C16.7158 12.6163 17.423 10.7408 17.423 8.7115C17.423 3.9048 13.5182 0 8.7115 0C3.9048 0 0 3.9048 0 8.7115C0 13.5182 3.9048 17.423 8.7115 17.423C10.7408 17.423 12.6163 16.7158 14.0921 15.5475L16.2444 17.6997C16.6458 18.1012 17.2971 18.1 17.6971 17.6971ZM8.7115 15.3732C5.04242 15.3732 2.04977 12.3806 2.04977 8.7115C2.04977 5.04242 5.04242 2.04977 8.7115 2.04977C12.3806 2.04977 15.3732 5.04242 15.3732 8.7115C15.3732 12.3806 12.3806 15.3732 8.7115 15.3732Z" fill="white"/>
</svg>
