<svg width="24" height="18" viewBox="0 0 24 18" fill="none" xmlns="http://www.w3.org/2000/svg">
<g opacity="0.5">
<path d="M23.2675 17.2675C23.6559 16.8764 23.6548 16.2448 23.265 15.855L21.16 13.75C22.31 12.31 23 10.48 23 8.5C23 3.81 19.19 0 14.5 0C9.81 0 6 3.81 6 8.5C6 13.19 9.81 17 14.5 17C16.48 17 18.31 16.31 19.75 15.17L21.85 17.27C22.2417 17.6617 22.8772 17.6606 23.2675 17.2675ZM14.5 15C10.92 15 8 12.08 8 8.5C8 4.92 10.92 2 14.5 2C18.08 2 21 4.92 21 8.5C21 12.08 18.08 15 14.5 15Z" fill="white"/>
<rect y="16" width="8" height="2" rx="1" fill="white"/>
<rect y="10" width="4" height="2" rx="1" fill="white"/>
<rect y="4" width="4" height="2" rx="1" fill="white"/>
</g>
</svg>
