<svg width="18" height="25" viewBox="0 0 18 25" fill="none" xmlns="http://www.w3.org/2000/svg">
<path d="M8.92857 0C5.31994 0 2.38095 2.93899 2.38095 6.54762V10.026C0.909133 11.6188 0 13.737 0 16.0714C0 20.9961 4.00391 25 8.92857 25C13.8532 25 17.8571 20.9961 17.8571 16.0714C17.8571 13.737 16.948 11.6188 15.4762 10.026V6.54762C15.4762 2.93899 12.5372 0 8.92857 0ZM8.92857 1.19048C11.8955 1.19048 14.2857 3.58073 14.2857 6.54762V8.94717C12.7906 7.81948 10.9398 7.14286 8.92857 7.14286C6.91732 7.14286 5.0665 7.81948 3.57143 8.94717V6.54762C3.57143 3.58073 5.96168 1.19048 8.92857 1.19048ZM8.92857 8.33333C13.2092 8.33333 16.6667 11.7908 16.6667 16.0714C16.6667 20.352 13.2092 23.8095 8.92857 23.8095C4.64797 23.8095 1.19048 20.352 1.19048 16.0714C1.19048 11.7908 4.64797 8.33333 8.92857 8.33333ZM8.92857 14.2857C7.94271 14.2857 7.14286 15.0856 7.14286 16.0714C7.14286 16.8457 7.64276 17.4991 8.33333 17.7455V19.0476C8.33333 19.3755 8.60073 19.6429 8.92857 19.6429C9.25642 19.6429 9.52381 19.3755 9.52381 19.0476V17.7455C10.2144 17.4991 10.7143 16.8457 10.7143 16.0714C10.7143 15.0856 9.91443 14.2857 8.92857 14.2857Z" fill="white"/>
</svg>
