<svg width="8" height="8" viewBox="0 0 8 8" fill="none" xmlns="http://www.w3.org/2000/svg">
<path opacity="0.5" fill-rule="evenodd" clip-rule="evenodd" d="M7.76584 1.36367C8.07781 1.0517 8.07781 0.545895 7.76584 0.233922C7.45387 -0.0780508 6.94806 -0.0780508 6.63609 0.233922L4 2.87001L1.36391 0.233922C1.05194 -0.0780507 0.54613 -0.0780508 0.234158 0.233922C-0.077815 0.545895 -0.077815 1.0517 0.234158 1.36367L2.87025 3.99976L0.234157 6.63585C-0.077815 6.94783 -0.0778153 7.45363 0.234157 7.76561C0.54613 8.07758 1.05194 8.07758 1.36391 7.76561L4 5.12952L6.63609 7.76561C6.94806 8.07758 7.45387 8.07758 7.76584 7.76561C8.07781 7.45363 8.07782 6.94783 7.76584 6.63585L5.12975 3.99976L7.76584 1.36367Z" fill="white"/>
</svg>
