<svg width="6" height="12" viewBox="0 0 6 12" fill="none" xmlns="http://www.w3.org/2000/svg">
<path fill-rule="evenodd" clip-rule="evenodd" d="M3 4C3.55228 4 4 3.55231 4 3C4 2.44769 3.55228 2 3 2C2.44771 2 2 2.44769 2 3C2 3.55231 2.44771 4 3 4ZM4 5.82928C5.16519 5.41748 6 4.30621 6 3C6 1.34314 4.65686 0 3 0C1.34314 0 0 1.34314 0 3C0 4.30621 0.834808 5.41748 2 5.82928V11C2 11.5523 2.44771 12 3 12C3.55229 12 4 11.5523 4 11H4.75C5.16422 11 5.5 10.6642 5.5 10.25C5.5 9.83582 5.16422 9.5 4.75 9.5H4V9H4.25C4.66422 9 5 8.66418 5 8.25C5 7.83582 4.66422 7.5 4.25 7.5H4V5.82928Z" fill="#FF931E"/>
</svg>
