<svg width="10" height="10" viewBox="0 0 10 10" fill="none" xmlns="http://www.w3.org/2000/svg">
<path fill-rule="evenodd" clip-rule="evenodd" d="M2.5 7.5C2.5 6.94772 2.94772 6.5 3.5 6.5C4.05228 6.5 4.5 6.94772 4.5 7.5C4.5 8.05228 4.05228 8.5 3.5 8.5C2.94772 8.5 2.5 8.05228 2.5 7.5ZM1.56301 8H0.5C0.223858 8 0 7.77614 0 7.5C0 7.22386 0.223858 7 0.5 7H1.56301C1.78503 6.13739 2.56808 5.5 3.5 5.5C4.60457 5.5 5.5 6.39543 5.5 7.5C5.5 8.60457 4.60457 9.5 3.5 9.5C2.56808 9.5 1.78503 8.86261 1.56301 8ZM7 7.5C7 7.67532 6.96992 7.84361 6.91465 8H9.5C9.77614 8 10 7.77614 10 7.5C10 7.22386 9.77614 7 9.5 7H6.91465C6.96992 7.15639 7 7.32468 7 7.5Z" fill="white"/>
<path fill-rule="evenodd" clip-rule="evenodd" d="M7.5 2C7.5 2.55228 7.05228 3 6.5 3C5.94772 3 5.5 2.55229 5.5 2C5.5 1.44772 5.94772 1 6.5 1C7.05228 1 7.5 1.44772 7.5 2ZM8.43699 1.5L9.5 1.5C9.77614 1.5 10 1.72386 10 2C10 2.27614 9.77614 2.5 9.5 2.5L8.43699 2.5C8.21497 3.36261 7.43192 4 6.5 4C5.39543 4 4.5 3.10457 4.5 2C4.5 0.895431 5.39543 4.02544e-07 6.5 3.0598e-07C7.43192 2.24509e-07 8.21497 0.637386 8.43699 1.5ZM3 2C3 1.82468 3.03008 1.65639 3.08535 1.5L0.5 1.5C0.223858 1.5 -1.98987e-07 1.72386 -1.74846e-07 2C-1.50704e-07 2.27614 0.223857 2.5 0.5 2.5L3.08535 2.5C3.03008 2.34361 3 2.17532 3 2Z" fill="white"/>
</svg>
