<svg width="20" height="15" viewBox="0 0 20 15" fill="none" xmlns="http://www.w3.org/2000/svg">
<path d="M1.36369 6.81862e-05C0.618429 6.81862e-05 6.81861e-05 0.618429 6.81861e-05 1.36369V4.09094C-0.00120956 4.18129 0.0154821 4.27099 0.049173 4.35483C0.0828639 4.43867 0.132882 4.51498 0.196321 4.57932C0.25976 4.64367 0.335354 4.69476 0.41871 4.72963C0.502067 4.7645 0.591523 4.78246 0.68188 4.78246C0.772237 4.78246 0.861694 4.7645 0.94505 4.72963C1.02841 4.69476 1.104 4.64367 1.16744 4.57932C1.23088 4.51498 1.2809 4.43867 1.31459 4.35483C1.34828 4.27099 1.36497 4.18129 1.36369 4.09094V1.36369H4.09094C4.18129 1.36497 4.27099 1.34828 4.35483 1.31459C4.43867 1.2809 4.51498 1.23088 4.57932 1.16744C4.64367 1.104 4.69476 1.02841 4.72963 0.94505C4.7645 0.861694 4.78246 0.772237 4.78246 0.68188C4.78246 0.591523 4.7645 0.502067 4.72963 0.41871C4.69476 0.335354 4.64367 0.25976 4.57932 0.196321C4.51498 0.132882 4.43867 0.0828639 4.35483 0.049173C4.27099 0.0154821 4.18129 -0.00120956 4.09094 6.81862e-05H1.36369ZM15.9091 6.81862e-05C15.8187 -0.00120956 15.729 0.0154821 15.6452 0.049173C15.5613 0.0828639 15.485 0.132882 15.4207 0.196321C15.3563 0.25976 15.3052 0.335354 15.2704 0.41871C15.2355 0.502067 15.2175 0.591523 15.2175 0.68188C15.2175 0.772237 15.2355 0.861694 15.2704 0.94505C15.3052 1.02841 15.3563 1.104 15.4207 1.16744C15.485 1.23088 15.5613 1.2809 15.6452 1.31459C15.729 1.34828 15.8187 1.36497 15.9091 1.36369H18.6363V4.09094C18.635 4.18129 18.6517 4.27099 18.6854 4.35483C18.7191 4.43867 18.7691 4.51498 18.8326 4.57932C18.896 4.64367 18.9716 4.69476 19.0549 4.72963C19.1383 4.7645 19.2278 4.78246 19.3181 4.78246C19.4085 4.78246 19.4979 4.7645 19.5813 4.72963C19.6646 4.69476 19.7402 4.64367 19.8037 4.57932C19.8671 4.51498 19.9171 4.43867 19.9508 4.35483C19.9845 4.27099 20.0012 4.18129 19.9999 4.09094V1.36369C19.9999 0.618429 19.3816 6.81862e-05 18.6363 6.81862e-05H15.9091ZM0.671227 10.2179C0.490632 10.2207 0.318534 10.2951 0.192705 10.4247C0.0668756 10.5543 -0.00240497 10.7285 6.81861e-05 10.9091V13.6363C6.81861e-05 14.3816 0.618429 14.9999 1.36369 14.9999H4.09094C4.18129 15.0012 4.27099 14.9845 4.35483 14.9508C4.43867 14.9171 4.51498 14.8671 4.57932 14.8037C4.64367 14.7402 4.69476 14.6646 4.72963 14.5813C4.7645 14.4979 4.78246 14.4085 4.78246 14.3181C4.78246 14.2278 4.7645 14.1383 4.72963 14.0549C4.69476 13.9716 4.64367 13.896 4.57932 13.8326C4.51498 13.7691 4.43867 13.7191 4.35483 13.6854C4.27099 13.6517 4.18129 13.635 4.09094 13.6363H1.36369V10.9091C1.36494 10.8178 1.34787 10.7273 1.3135 10.6428C1.27913 10.5583 1.22814 10.4815 1.16357 10.4171C1.099 10.3527 1.02216 10.3018 0.937589 10.2676C0.853019 10.2334 0.762444 10.2165 0.671227 10.2179ZM19.3075 10.2179C19.1269 10.2207 18.9548 10.2951 18.8289 10.4247C18.7031 10.5543 18.6338 10.7285 18.6363 10.9091V13.6363H15.9091C15.8187 13.635 15.729 13.6517 15.6452 13.6854C15.5613 13.7191 15.485 13.7691 15.4207 13.8326C15.3563 13.896 15.3052 13.9716 15.2704 14.0549C15.2355 14.1383 15.2175 14.2278 15.2175 14.3181C15.2175 14.4085 15.2355 14.4979 15.2704 14.5813C15.3052 14.6646 15.3563 14.7402 15.4207 14.8037C15.485 14.8671 15.5613 14.9171 15.6452 14.9508C15.729 14.9845 15.8187 15.0012 15.9091 14.9999H18.6363C19.3816 14.9999 19.9999 14.3816 19.9999 13.6363V10.9091C20.0012 10.8178 19.9841 10.7273 19.9497 10.6428C19.9154 10.5583 19.8644 10.4815 19.7998 10.4171C19.7352 10.3527 19.6584 10.3018 19.5738 10.2676C19.4893 10.2334 19.3987 10.2165 19.3075 10.2179Z" fill="white"/>
</svg>
