<svg width="24" height="26" viewBox="0 0 24 26" fill="none" xmlns="http://www.w3.org/2000/svg">
<path d="M1.38471 15.8226L1.38485 15.8225L1.39768 15.8138C2.05404 15.37 2.99522 14.7335 3.75535 13.4346C4.51737 12.1324 5.07143 10.2133 5.07143 7.23322C5.07143 5.86953 5.58221 4.17639 6.70521 2.83163C7.81556 1.50201 9.53374 0.5 12 0.5C14.4667 0.5 16.1849 1.49999 17.295 2.82723C18.4179 4.16956 18.9286 5.8602 18.9286 7.22381C18.9286 10.2038 19.4826 12.1252 20.2445 13.4285C21.0094 14.7368 21.9573 15.373 22.6163 15.8138C22.9142 16.0151 23.1393 16.1696 23.2985 16.338C23.4428 16.4906 23.5 16.6209 23.5 16.7739C23.5 17.1747 23.3482 17.5182 22.9813 17.8341C22.5953 18.1666 21.9667 18.4697 21.0254 18.7194C19.1439 19.2183 16.1998 19.4573 12 19.4573C7.79995 19.4573 4.85573 19.2207 2.97405 18.7239C2.03267 18.4754 1.40414 18.1733 1.01829 17.8417C0.651725 17.5267 0.5 17.1841 0.5 16.7833C0.5 16.6303 0.557227 16.5 0.701454 16.3474C0.860855 16.1788 1.08633 16.0242 1.38471 15.8226ZM12 22.8872C13.0084 22.8872 13.9728 22.8742 14.8925 22.8425C14.6719 24.2201 13.4664 25.2778 12 25.2778C10.5324 25.2778 9.32615 24.2185 9.10699 22.8392C10.0238 22.8676 10.9884 22.8872 12 22.8872Z" stroke="white"/>
</svg>
