<svg width="21" height="25" viewBox="0 0 21 25" fill="none" xmlns="http://www.w3.org/2000/svg">
<path d="M19.7465 8.52717C19.6353 8.5968 16.9874 10.0664 16.9874 13.3248C17.1122 17.0408 20.329 18.3439 20.3841 18.3439C20.329 18.4136 19.8985 20.1192 18.6233 21.9071C17.6114 23.4472 16.4882 25 14.7825 25C13.1601 25 12.5777 23.9736 10.7057 23.9736C8.69533 23.9736 8.12649 25 6.58727 25C4.88166 25 3.67525 23.364 2.60811 21.8384C1.22173 19.8416 0.0433568 16.708 0.00175644 13.6992C-0.0262786 12.1048 0.279393 10.5375 1.05533 9.20634C2.1505 7.34789 4.10572 6.08631 6.2409 6.04471C7.87688 5.98955 9.3329 7.16792 10.3313 7.16792C11.2881 7.16792 13.0769 6.04471 15.1009 6.04471C15.9745 6.04562 18.3041 6.30878 19.7465 8.52717ZM10.1929 5.72638C9.90174 4.27037 10.7057 2.81435 11.4545 1.88558C12.4113 0.762372 13.9225 0 15.2257 0C15.3089 1.45601 14.7816 2.88399 13.8393 3.924C12.9937 5.04721 11.5377 5.89278 10.1929 5.72638Z" fill="white"/>
</svg>
