<svg width="18" height="13" viewBox="0 0 18 13" fill="none" xmlns="http://www.w3.org/2000/svg">
<path d="M11.7115 2.1751C11.8033 2.31933 11.9624 2.40667 12.1333 2.40667H14.3333C15.714 2.40667 16.8333 3.52596 16.8333 4.90667V10C16.8333 11.3807 15.714 12.5 14.3333 12.5H3C1.61929 12.5 0.5 11.3807 0.5 10V4.90667C0.5 3.52596 1.61929 2.40667 3 2.40667H5.02667C5.19762 2.40667 5.35672 2.31933 5.4485 2.1751L5.77768 1.65781C6.23658 0.936691 7.03209 0.5 7.88684 0.5H9.27316C10.1279 0.5 10.9234 0.936691 11.3823 1.65781L11.7115 2.1751Z" stroke="white" stroke-linejoin="round"/>
<circle cx="8.6666" cy="7.45332" r="3.31333" stroke="white"/>
<circle cx="14.04" cy="3.81332" r="0.52" fill="white"/>
</svg>
