<svg width="16" height="16" viewBox="0 0 16 16" fill="none" xmlns="http://www.w3.org/2000/svg">
<path d="M5.8119 2.71968L5.66592 2.3678L5.8119 2.71968ZM4.31847 2.0785L4.10335 2.39291L4.31847 2.0785ZM2.07843 4.31854L1.76403 4.53366L2.07843 4.31854ZM2.66324 5.17325L2.34883 5.38837L2.66324 5.17325ZM2.22748 6.22515L2.29769 6.59958L2.22748 6.22515ZM2.71963 5.81192L2.36776 5.66594L2.71963 5.81192ZM1.20961 9.58389L1.13941 9.95832L1.20961 9.58389ZM2.22728 9.7747L2.15708 10.1491L2.22728 9.7747ZM2.71959 10.1881L2.36771 10.334L2.71959 10.1881ZM4.3185 13.9215L4.53361 14.2359L4.3185 13.9215ZM5.17306 13.3368L5.38817 13.6512L5.17306 13.3368ZM5.81189 13.2804L5.66592 13.6323L5.81189 13.2804ZM9.58393 14.7903L9.20951 14.7201L9.58393 14.7903ZM10.8271 13.3368L10.6119 13.6512L10.8271 13.3368ZM10.1881 13.2804L10.0422 12.9285L10.1881 13.2804ZM11.6815 13.9214L11.8966 13.607L11.6815 13.9214ZM13.9215 11.6814L14.2359 11.4663L13.9215 11.6814ZM13.3368 10.8268L13.0224 11.0419L13.3368 10.8268ZM13.7726 9.77477L13.7024 9.40034L13.7726 9.77477ZM14.7904 9.58394L14.8606 9.95837L14.7904 9.58394ZM13.3368 5.17319L13.6512 5.3883L13.3368 5.17319ZM13.2804 5.81193L13.6322 5.66596L13.2804 5.81193ZM13.8014 3.02656L13.5321 3.29593L13.8014 3.02656ZM11.6815 2.0785L11.8966 2.3929L11.6815 2.0785ZM10.8268 2.66327L10.6117 2.34887L10.8268 2.66327ZM9.77478 2.22746L9.40035 2.29767L9.77478 2.22746ZM10.1881 2.71968L10.0421 3.07155L10.1881 2.71968ZM8.58546 0L7.41452 0V0.761905H8.58546V0ZM10.1492 2.15726L9.95836 1.13941L9.20951 1.27982L9.40035 2.29767L10.1492 2.15726ZM11.0419 2.97767L11.8966 2.3929L11.4664 1.7641L10.6117 2.34887L11.0419 2.97767ZM12.7041 2.46795L13.5321 3.29593L14.0708 2.75718L13.2428 1.9292L12.7041 2.46795ZM13.6071 4.10342L13.0224 4.95807L13.6512 5.3883L14.2359 4.53365L13.6071 4.10342ZM13.7024 6.59965L14.7202 6.79048L14.8606 6.04163L13.8428 5.85079L13.7024 6.59965ZM15.2381 7.41453V8.58547H16V7.41453H15.2381ZM14.7202 9.20952L13.7024 9.40034L13.8428 10.1492L14.8606 9.95837L14.7202 9.20952ZM14.2359 11.4663L13.6512 10.6117L13.0224 11.0419L13.6071 11.8965L14.2359 11.4663ZM13.2429 14.0707L14.0708 13.2428L13.5321 12.704L12.7041 13.532L13.2429 14.0707ZM10.6119 13.6512L11.4664 14.2358L11.8966 13.607L11.0422 13.0224L10.6119 13.6512ZM9.95836 14.8605L10.1492 13.843L9.4003 13.7026L9.20951 14.7201L9.95836 14.8605ZM7.41452 15.9999H8.58546V15.238H7.41452V15.9999ZM5.85081 13.8429L6.04162 14.8605L6.79047 14.7201L6.59967 13.7025L5.85081 13.8429ZM4.53361 14.2359L5.38817 13.6512L4.95794 13.0224L4.10338 13.6071L4.53361 14.2359ZM1.92916 13.2429L2.75715 14.0708L3.29589 13.5321L2.46791 12.7041L1.92916 13.2429ZM2.34877 10.6118L1.76406 11.4664L2.39286 11.8966L2.97757 11.042L2.34877 10.6118ZM1.13941 9.95832L2.15708 10.1491L2.29749 9.40028L1.27982 9.20946L1.13941 9.95832ZM0 7.41448L0 8.58542H0.761905V7.41448H0ZM2.15728 5.85072L1.13941 6.04157L1.27982 6.79043L2.29769 6.59958L2.15728 5.85072ZM2.97764 4.95814L2.39284 4.10342L1.76403 4.53366L2.34883 5.38837L2.97764 4.95814ZM2.46788 3.29594L3.29587 2.46796L2.75712 1.92921L1.92914 2.75719L2.46788 3.29594ZM4.10335 2.39291L4.95802 2.97768L5.38825 2.34887L4.53359 1.7641L4.10335 2.39291ZM6.04162 1.13941L5.85077 2.15725L6.59963 2.29766L6.79047 1.27982L6.04162 1.13941ZM5.95787 3.07156C6.27337 2.94067 6.53143 2.6614 6.59963 2.29766L5.85077 2.15725C5.83512 2.24072 5.77071 2.32433 5.66592 2.3678L5.95787 3.07156ZM4.95802 2.97768C5.26259 3.18607 5.64077 3.2031 5.95787 3.07156L5.66592 2.3678C5.56247 2.41072 5.45943 2.39758 5.38825 2.34887L4.95802 2.97768ZM3.29587 2.46796C3.51191 2.25191 3.85119 2.22038 4.10335 2.39291L4.53359 1.7641C3.97884 1.38454 3.23242 1.45391 2.75712 1.92921L3.29587 2.46796ZM2.39284 4.10342C2.22031 3.85126 2.25184 3.51198 2.46788 3.29594L1.92914 2.75719C1.45384 3.23249 1.38446 3.97891 1.76403 4.53366L2.39284 4.10342ZM3.07151 5.9579C3.20304 5.64083 3.18602 5.26269 2.97764 4.95814L2.34883 5.38837C2.39752 5.45953 2.41066 5.56253 2.36776 5.66594L3.07151 5.9579ZM2.29769 6.59958C2.66139 6.53138 2.94064 6.27336 3.07151 5.9579L2.36776 5.66594C2.3243 5.77069 2.24072 5.83508 2.15728 5.85072L2.29769 6.59958ZM0.761905 7.41448C0.761905 7.10894 0.979517 6.84674 1.27982 6.79043L1.13941 6.04157C0.478746 6.16545 0 6.7423 0 7.41448H0.761905ZM1.27982 9.20946C0.979516 9.15316 0.761905 8.89095 0.761905 8.58542H0C0 9.25759 0.478746 9.83444 1.13941 9.95832L1.27982 9.20946ZM3.07146 10.0421C2.94057 9.72658 2.66127 9.46849 2.29749 9.40028L2.15708 10.1491C2.24058 10.1648 2.32423 10.2292 2.36771 10.334L3.07146 10.0421ZM2.97757 11.042C3.18599 10.7374 3.20302 10.3592 3.07146 10.0421L2.36771 10.334C2.41064 10.4375 2.39749 10.5406 2.34877 10.6118L2.97757 11.042ZM2.46791 12.7041C2.25187 12.4881 2.22033 12.1488 2.39286 11.8966L1.76406 11.4664C1.38449 12.0211 1.45387 12.7676 1.92916 13.2429L2.46791 12.7041ZM4.10338 13.6071C3.85122 13.7797 3.51194 13.7481 3.29589 13.5321L2.75715 14.0708C3.23244 14.5461 3.97887 14.6155 4.53361 14.2359L4.10338 13.6071ZM5.95787 12.9286C5.64075 12.797 5.26254 12.814 4.95794 13.0224L5.38817 13.6512C5.45938 13.6025 5.56244 13.5894 5.66592 13.6323L5.95787 12.9286ZM6.59967 13.7025C6.53146 13.3387 6.27338 13.0594 5.95787 12.9286L5.66592 13.6323C5.77073 13.6758 5.83516 13.7594 5.85081 13.8429L6.59967 13.7025ZM7.41452 15.238C7.10898 15.238 6.84678 15.0204 6.79047 14.7201L6.04162 14.8605C6.16549 15.5212 6.74234 15.9999 7.41452 15.9999V15.238ZM9.20951 14.7201C9.1532 15.0204 8.89099 15.238 8.58546 15.238V15.9999C9.25763 15.9999 9.83449 15.5212 9.95836 14.8605L9.20951 14.7201ZM10.0422 12.9285C9.72662 13.0594 9.46851 13.3388 9.4003 13.7026L10.1492 13.843C10.1648 13.7594 10.2293 13.6758 10.3341 13.6323L10.0422 12.9285ZM11.0422 13.0224C10.7375 12.814 10.3593 12.797 10.0422 12.9285L10.3341 13.6323C10.4376 13.5893 10.5407 13.6025 10.6119 13.6512L11.0422 13.0224ZM12.7041 13.532C12.4881 13.748 12.1488 13.7796 11.8966 13.607L11.4664 14.2358C12.0211 14.6154 12.7676 14.546 13.2429 14.0707L12.7041 13.532ZM13.6071 11.8965C13.7797 12.1487 13.7481 12.488 13.5321 12.704L14.0708 13.2428C14.5461 12.7675 14.6155 12.021 14.2359 11.4663L13.6071 11.8965ZM12.9285 10.0421C12.797 10.3592 12.814 10.7374 13.0224 11.0419L13.6512 10.6117C13.6025 10.5405 13.5894 10.4375 13.6323 10.334L12.9285 10.0421ZM13.7024 9.40034C13.3387 9.46855 13.0594 9.72661 12.9285 10.0421L13.6323 10.334C13.6757 10.2293 13.7594 10.1648 13.8428 10.1492L13.7024 9.40034ZM15.2381 8.58547C15.2381 8.89101 15.0205 9.15321 14.7202 9.20952L14.8606 9.95837C15.5212 9.8345 16 9.25765 16 8.58547H15.2381ZM14.7202 6.79048C15.0205 6.84679 15.2381 7.109 15.2381 7.41453H16C16 6.74236 15.5212 6.1655 14.8606 6.04163L14.7202 6.79048ZM12.9285 5.95791C13.0594 6.2734 13.3386 6.53145 13.7024 6.59965L13.8428 5.85079C13.7593 5.83514 13.6757 5.77074 13.6322 5.66596L12.9285 5.95791ZM13.0224 4.95807C12.814 5.26264 12.7969 5.64082 12.9285 5.95791L13.6322 5.66596C13.5893 5.56251 13.6025 5.45948 13.6512 5.3883L13.0224 4.95807ZM13.5321 3.29593C13.7481 3.51197 13.7796 3.85126 13.6071 4.10342L14.2359 4.53365C14.6155 3.9789 14.5461 3.23248 14.0708 2.75718L13.5321 3.29593ZM11.8966 2.3929C12.1488 2.22037 12.488 2.2519 12.7041 2.46795L13.2428 1.9292C12.7675 1.4539 12.0211 1.38453 11.4664 1.7641L11.8966 2.3929ZM10.0421 3.07155C10.3592 3.20309 10.7374 3.18606 11.0419 2.97767L10.6117 2.34887C10.5405 2.39757 10.4375 2.41071 10.334 2.3678L10.0421 3.07155ZM9.40035 2.29767C9.46856 2.66141 9.72661 2.94067 10.0421 3.07155L10.334 2.3678C10.2293 2.32433 10.1649 2.24072 10.1492 2.15726L9.40035 2.29767ZM7.41452 0C6.74235 0 6.16549 0.478746 6.04162 1.13941L6.79047 1.27982C6.84678 0.979516 7.10899 0.761905 7.41452 0.761905V0ZM8.58546 0.761905C8.89099 0.761905 9.1532 0.979517 9.20951 1.27982L9.95836 1.13941C9.83449 0.478747 9.25764 0 8.58546 0V0.761905Z" fill="white"/>
<circle cx="8" cy="8.30804" r="2.53968" stroke="white" stroke-width="0.75"/>
</svg>
