<svg width="8" height="16" viewBox="0 0 8 16" fill="none" xmlns="http://www.w3.org/2000/svg">
<path fill-rule="evenodd" clip-rule="evenodd" d="M4 6C5.10457 6 6 5.10457 6 4C6 2.89543 5.10457 2 4 2C2.89543 2 2 2.89543 2 4C2 5.10419 2.89481 5.99938 3.99886 6L4 6ZM5 7.87398C6.72523 7.42994 8 5.86384 8 4C8 1.79086 6.20914 -2.7141e-07 4 -1.74846e-07C1.79086 -7.8281e-08 7.8281e-08 1.79086 1.74846e-07 4C2.56317e-07 5.86384 1.27477 7.42994 3 7.87398L3 15C3 15.5523 3.44772 16 4 16C4.55228 16 5 15.5523 5 15L7 15C7.55228 15 8 14.5523 8 14C8 13.4477 7.55228 13 7 13L5 13L5 12L6 12C6.55229 12 7 11.5523 7 11C7 10.4477 6.55229 10 6 10L5 10L5 7.87398Z" fill="#FF931E"/>
</svg>
