<svg width="13" height="18" viewBox="0 0 13 18" fill="none" xmlns="http://www.w3.org/2000/svg">
<path opacity="0.5" d="M6.50025 10.9777C3.6117 10.9777 1.26624 8.63219 1.26624 5.74364C1.26624 2.8551 3.6117 0.509628 6.50025 0.509628C9.3888 0.509628 11.7343 2.8551 11.7343 5.74364C11.7343 8.62432 9.3888 10.9777 6.50025 10.9777ZM6.50025 1.28883C4.04459 1.28883 2.05331 3.28799 2.05331 5.73577C2.05331 8.18356 4.05246 10.1827 6.50025 10.1827C8.94804 10.1827 10.9472 8.18356 10.9472 5.73577C10.9472 3.28799 8.95591 1.28883 6.50025 1.28883ZM6.50025 13.882C8.69681 13.882 10.7102 15.1781 11.7275 17.2239C11.8241 17.4182 12.0538 17.5125 12.2536 17.4277C12.4536 17.343 12.5477 17.1113 12.4519 16.9164C11.3071 14.5868 9.01069 13.1028 6.50025 13.1028C3.98935 13.1028 1.69258 14.5874 0.547941 16.9245C0.452506 17.1194 0.546675 17.3508 0.746443 17.4354C0.946459 17.5202 1.17628 17.4258 1.27274 17.2311C2.2899 15.1783 4.30349 13.882 6.50025 13.882Z" fill="white" stroke="white" stroke-linejoin="round"/>
</svg>
