<svg width="10" height="12" viewBox="0 0 10 12" fill="none" xmlns="http://www.w3.org/2000/svg">
<path d="M5.57604 0.666667C5.57604 0.298477 5.27756 1.60935e-08 4.90938 0C4.54119 -1.60947e-08 4.24271 0.298477 4.24271 0.666667L5.57604 0.666667ZM4.43797 11.8047C4.69832 12.0651 5.12043 12.0651 5.38078 11.8047L9.62342 7.5621C9.88377 7.30175 9.88377 6.87964 9.62342 6.61929C9.36307 6.35894 8.94096 6.35894 8.68061 6.61929L4.90937 10.3905L1.13814 6.61929C0.877789 6.35894 0.455679 6.35894 0.19533 6.61929C-0.06502 6.87964 -0.06502 7.30175 0.195329 7.5621L4.43797 11.8047ZM4.24271 0.666667L4.24271 11.3333L5.57604 11.3333L5.57604 0.666667L4.24271 0.666667Z" fill="white"/>
</svg>
