<svg width="6" height="12" viewBox="0 0 6 12" fill="none" xmlns="http://www.w3.org/2000/svg">
<path fill-rule="evenodd" clip-rule="evenodd" d="M3 4C3.55228 4 4 3.55229 4 3C4 2.44771 3.55228 2 3 2C2.44772 2 2 2.44772 2 3C2 3.55224 2.44764 3.99992 2.99985 4H3ZM4 5.82929C5.16519 5.41746 6 4.30622 6 3C6 1.34315 4.65685 0 3 0C1.34315 0 0 1.34315 0 3C0 4.30622 0.834808 5.41746 2 5.82929L2 11C2 11.5523 2.44772 12 3 12C3.55228 12 4 11.5523 4 11H4.75C5.16421 11 5.5 10.6642 5.5 10.25C5.5 9.83579 5.16421 9.5 4.75 9.5H4V9H4.25C4.66421 9 5 8.66421 5 8.25C5 7.83579 4.66421 7.5 4.25 7.5H4V5.82929Z" fill="#FF931E"/>
</svg>
