<svg width="18" height="20" viewBox="0 0 18 20" fill="none" xmlns="http://www.w3.org/2000/svg">
<path d="M0.833426 0C0.723708 1.01757e-05 0.615071 0.0216818 0.513748 0.0637725C0.412425 0.105863 0.32041 0.167544 0.242979 0.245278C0.165549 0.323011 0.104227 0.415267 0.0625318 0.516753C0.0208365 0.61824 -0.000411615 0.726959 6.03947e-06 0.836676V0.856209C1.27167e-06 0.857837 1.27167e-06 0.859464 6.03947e-06 0.861092L0.0700005 19.1687C0.0703814 19.3151 0.109334 19.4588 0.182936 19.5854C0.256537 19.712 0.362191 19.817 0.489259 19.8898C0.616328 19.9626 0.760328 20.0006 0.906761 20C1.05319 19.9994 1.19689 19.9603 1.32339 19.8865L17.1226 10.6603C17.2491 10.5867 17.354 10.4811 17.4267 10.3542C17.4995 10.2272 17.5375 10.0833 17.537 9.93696C17.5365 9.79062 17.4975 9.647 17.4239 9.52052C17.3503 9.39404 17.2447 9.28917 17.1177 9.21646L1.24851 0.110689V0.112316C1.12235 0.039217 0.979229 0.00048954 0.833426 0Z" fill="white"/>
</svg>
