<svg width="11" height="10" viewBox="0 0 11 10" fill="none" xmlns="http://www.w3.org/2000/svg">
<path d="M0.714286 0C0.319797 0 0 0.319797 0 0.714286C0 1.10877 0.319797 1.42857 0.714286 1.42857H10.1379C10.5324 1.42857 10.8522 1.10877 10.8522 0.714286C10.8522 0.319797 10.5324 0 10.1379 0H0.714286ZM0.714286 4.28571C0.319797 4.28571 0 4.60551 0 5C0 5.39449 0.319797 5.71429 0.714286 5.71429H10.1379C10.5324 5.71429 10.8522 5.39449 10.8522 5C10.8522 4.60551 10.5324 4.28571 10.1379 4.28571H0.714286ZM0.714284 8.57143C0.319796 8.57143 0 8.89123 0 9.28572C0 9.6802 0.319796 10 0.714285 10H6.24224C6.63673 10 6.95652 9.6802 6.95652 9.28572C6.95652 8.89123 6.63673 8.57143 6.24224 8.57143H0.714284Z" fill="#FF931E"/>
</svg>
