<svg width="105" height="20" viewBox="0 0 105 20" fill="none" xmlns="http://www.w3.org/2000/svg">
<path d="M11.9282 1.53923C12.4241 1.53923 12.7747 1.65039 12.9799 1.86416C13.1851 2.07792 13.2877 2.4285 13.2877 2.90734V4.08733C13.2877 4.56617 13.1851 4.91674 12.9799 5.12196C12.7747 5.33573 12.4241 5.44688 11.9282 5.44688H4.30953V9.52555H10.6456C11.1244 9.52555 11.4664 9.62816 11.6888 9.83337C11.9025 10.0386 12.0137 10.3892 12.0137 10.8851V12.0565C12.0137 12.5525 11.9025 12.9031 11.6888 13.1083C11.475 13.3135 11.1244 13.4161 10.6456 13.4161H4.30953V18.1361C4.30953 18.632 4.19838 18.9826 3.98461 19.1878C3.77084 19.393 3.42027 19.4956 2.94143 19.4956H1.35956C0.863617 19.4956 0.51304 19.393 0.307824 19.1707C0.102608 18.9569 0 18.6149 0 18.1275V2.89879C0 2.41995 0.102608 2.07792 0.307824 1.85561C0.51304 1.65039 0.863617 1.53923 1.35956 1.53923H11.9282Z" fill="white"/>
<path d="M30.6541 18.0078C30.9961 18.9997 30.6541 19.4956 29.628 19.4956H28.1915C27.5587 19.4956 27.0884 19.3845 26.7977 19.1621C26.4984 18.9398 26.2505 18.5465 26.0709 17.9822L25.3783 15.7504H18.6062L17.8879 17.9822C17.6998 18.5636 17.4347 18.9655 17.1013 19.1707C16.7678 19.3845 16.2291 19.4956 15.4937 19.4956H14.442C13.4159 19.4956 13.0739 18.9997 13.4159 18.0078L18.6746 2.82183C18.9653 1.96676 19.5638 1.53923 20.4702 1.53923H23.5998C24.5232 1.53923 25.1218 1.96676 25.3954 2.82183L30.6541 18.0078ZM19.7776 12.1079H24.2154L22.035 5.13051L19.7776 12.1079Z" fill="white"/>
<path d="M47.7127 19.8803C44.908 19.8803 42.6079 19.0423 40.8208 17.3749C39.0337 15.7075 38.1445 13.4245 38.1445 10.5087C38.1445 7.6015 39.0337 5.30993 40.8208 3.64255C42.6079 1.97517 44.8995 1.1372 47.7127 1.1372C49.4741 1.1372 50.8679 1.42793 51.8939 2.00937C52.236 2.19749 52.4754 2.3856 52.6036 2.57372C52.7319 2.76183 52.8003 3.08676 52.8003 3.54849V4.95935C52.8003 5.5579 52.5267 5.85717 51.9794 5.85717C51.8255 5.85717 51.3125 5.72891 50.4574 5.47239C49.5938 5.21587 48.7815 5.08761 48.0376 5.08761C46.2933 5.08761 44.9337 5.5579 43.9675 6.50702C43.0012 7.45614 42.5224 8.79005 42.5224 10.5002C42.5224 12.2103 43.0012 13.5442 43.9675 14.4933C44.9337 15.4425 46.2933 15.9213 48.0376 15.9213C48.79 15.9213 49.5938 15.793 50.4574 15.5365C51.321 15.28 51.8341 15.1517 51.9794 15.1517C52.5267 15.1517 52.8003 15.451 52.8003 16.0496V17.4604C52.8003 17.9222 52.7319 18.2556 52.6036 18.4437C52.4754 18.6404 52.236 18.8371 51.8939 19.0252C50.9021 19.5981 49.5083 19.8803 47.7127 19.8803Z" fill="white"/>
<path d="M57.0757 19.4955C56.5798 19.4955 56.2292 19.3929 56.024 19.1706C55.8188 18.9568 55.7162 18.6148 55.7162 18.1274V5.1304C55.7162 3.60838 56.0668 2.36853 56.7594 1.42796C57.452 0.487388 58.213 0 59.0509 0C59.564 0 59.8205 0.307824 59.8205 0.923472V18.136C59.8205 18.6148 59.7179 18.9654 59.5127 19.1791C59.3075 19.3929 58.9569 19.5041 58.461 19.5041H57.0757V19.4955Z" fill="white"/>
<path d="M76.0837 6.1565C76.6139 6.1565 76.8789 6.46433 76.8789 7.07997V18.8286C76.8789 19.4442 76.6139 19.7521 76.0837 19.7521C75.7246 19.7521 75.3227 19.5981 74.8781 19.2989C74.4335 18.9996 74.0401 18.5892 73.6981 18.0761C73.2364 18.6234 72.5865 19.0851 71.7486 19.4528C70.9106 19.8205 70.0042 20 69.0294 20C67.0286 20 65.3954 19.3416 64.1299 18.0077C62.8644 16.6824 62.2317 14.9893 62.2317 12.9372C62.2317 10.9192 62.8644 9.24329 64.1385 7.90084C65.4125 6.57548 67.0457 5.89998 69.0294 5.89998C70.0042 5.89998 70.9106 6.0881 71.7486 6.45577C72.5865 6.82345 73.2364 7.28519 73.6981 7.82388C74.0401 7.31084 74.4335 6.90896 74.8781 6.60114C75.3227 6.31041 75.7246 6.1565 76.0837 6.1565ZM67.3108 15.3741C67.9264 15.9983 68.6874 16.3147 69.5938 16.3147C70.5002 16.3147 71.2526 16.0069 71.8683 15.3741C72.4754 14.7499 72.7746 13.9462 72.7746 12.9543C72.7746 11.9624 72.4668 11.1586 71.8683 10.5344C71.2612 9.91024 70.5002 9.60242 69.5938 9.60242C68.6874 9.60242 67.9264 9.91879 67.3108 10.5344C66.6951 11.1586 66.3873 11.971 66.3873 12.9543C66.3873 13.9462 66.6951 14.7585 67.3108 15.3741Z" fill="white"/>
<path d="M85.0108 19.9316C84.1044 19.9316 83.2066 19.8461 82.3173 19.6751C81.428 19.5041 80.7953 19.3159 80.4191 19.1107C79.9573 18.8542 79.7265 18.4694 79.7265 17.9564V16.6994C79.7265 16.0667 80.0001 15.7503 80.5473 15.7503C80.6499 15.7503 81.1886 15.9042 82.1634 16.2035C83.1382 16.5028 84.207 16.6567 85.3699 16.6567C86.3789 16.6567 86.8834 16.3232 86.8834 15.6563C86.8834 15.3313 86.7465 15.1005 86.4729 14.9637C86.1993 14.8269 85.6606 14.6815 84.8569 14.5276L84.036 14.3737C82.6337 14.1171 81.5563 13.6982 80.8124 13.1167C80.0685 12.5353 79.6923 11.646 79.6923 10.4489C79.6923 8.85849 80.2309 7.72125 81.2998 7.02865C82.3686 6.33604 83.7367 5.98547 85.4212 5.98547C87.2852 5.98547 88.756 6.24199 89.8333 6.75503C90.2951 6.97734 90.5259 7.36212 90.5259 7.90937V9.16631C90.5259 9.76486 90.2523 10.0641 89.7051 10.0641C89.517 10.0641 88.9355 9.93587 87.9693 9.6708C87.0031 9.40573 86.1395 9.26892 85.3699 9.26892C84.3609 9.26892 83.8564 9.55964 83.8564 10.1411C83.8564 10.4318 83.9847 10.637 84.2412 10.7653C84.4977 10.8935 85.0108 11.0304 85.7803 11.1672L86.4986 11.2954C87.9693 11.5519 89.0894 11.9795 89.8761 12.578C90.6542 13.1766 91.0475 14.1685 91.0475 15.5537C91.0475 17.0757 90.4917 18.1873 89.3802 18.8884C88.26 19.581 86.8064 19.9316 85.0108 19.9316Z" fill="white"/>
<path d="M98.0676 19.9316C97.1612 19.9316 96.2634 19.8461 95.3741 19.6751C94.4849 19.5041 93.8521 19.3159 93.4759 19.1107C93.0142 18.8542 92.7833 18.4694 92.7833 17.9564V16.6994C92.7833 16.0667 93.0569 15.7503 93.6042 15.7503C93.7068 15.7503 94.2455 15.9042 95.2202 16.2035C96.195 16.5028 97.2638 16.6567 98.4267 16.6567C99.4357 16.6567 99.9402 16.3232 99.9402 15.6563C99.9402 15.3313 99.8034 15.1005 99.5298 14.9637C99.2561 14.8269 98.7175 14.6815 97.9137 14.5276L97.0928 14.3737C95.6905 14.1171 94.6217 13.6982 93.8692 13.1167C93.1253 12.5353 92.7576 11.646 92.7576 10.4489C92.7576 8.85849 93.2878 7.72125 94.3652 7.02865C95.434 6.33604 96.8021 5.98547 98.4866 5.98547C100.351 5.98547 101.821 6.24199 102.899 6.75503C103.36 6.97734 103.591 7.36212 103.591 7.90937V9.16631C103.591 9.76486 103.318 10.0641 102.77 10.0641C102.582 10.0641 102.001 9.93587 101.035 9.6708C100.068 9.40573 99.1963 9.26892 98.4267 9.26892C97.4178 9.26892 96.9133 9.55964 96.9133 10.1411C96.9133 10.4318 97.0415 10.637 97.298 10.7653C97.5546 10.8935 98.0676 11.0304 98.8372 11.1672L99.5554 11.2954C101.026 11.5519 102.146 11.9795 102.924 12.578C103.702 13.1766 104.096 14.1685 104.096 15.5537C104.096 17.0757 103.54 18.1873 102.428 18.8884C101.317 19.581 99.8632 19.9316 98.0676 19.9316Z" fill="white"/>
</svg>
