<svg width="23" height="20" viewBox="0 0 23 20" fill="none" xmlns="http://www.w3.org/2000/svg">
<path d="M13.7856 0.606063C13.4988 0.373605 13.0706 0.577734 13.0706 0.946931V3.42582C13.0706 4.30418 12.3674 5.01241 11.4956 5.11961C6.18017 5.77322 3.34895 8.95631 1.95277 12.1363C0.407074 15.6541 0.505214 19.1013 0.508719 19.1941V19.209V19.209C0.508719 19.2337 0.528554 19.2539 0.553286 19.2543L0.965254 19.2611C1.21227 19.2652 1.42272 19.0758 1.46556 18.8325C1.59337 18.1066 1.9816 16.5754 3.11642 15.0189C4.48329 13.1447 6.96095 11.2689 11.4661 10.8201C12.3432 10.7327 13.0706 11.4497 13.0706 12.3311V14.7077C13.0706 15.0769 13.4988 15.281 13.7856 15.0486V15.0486L22.3097 8.21364V8.21364C22.5553 8.01463 22.5553 7.64001 22.3097 7.441V7.441L13.7856 0.606063V0.606063Z" stroke="white"/>
</svg>
