<svg width="16" height="34" viewBox="0 0 16 34" fill="none" xmlns="http://www.w3.org/2000/svg">
<path fill-rule="evenodd" clip-rule="evenodd" d="M8 12C10.2091 12 12 10.2091 12 8C12 5.79086 10.2091 4 8 4C5.79086 4 4 5.79086 4 8C4 10.2091 5.79086 12 8 12ZM10 15.748C13.4505 14.8599 16 11.7277 16 8C16 3.58172 12.4183 -5.4282e-07 8 -3.49691e-07C3.58172 -1.56562e-07 1.56562e-07 3.58172 3.49691e-07 8C5.12633e-07 11.7277 2.54955 14.8599 6 15.748L6 32C6 33.1046 6.89543 34 8 34C9.10457 34 10 33.1046 10 32L10 30.9999L13.5 30.9999C14.3284 30.9999 15 30.3283 15 29.4999C15 28.6715 14.3284 27.9999 13.5 27.9999L10 27.9999L10 24.9999L11.5 24.9999C12.3284 24.9999 13 24.3283 13 23.4999C13 22.6715 12.3284 21.9999 11.5 21.9999L10 21.9999L10 15.748Z" fill="#FF931E"/>
</svg>
