<svg width="20" height="14" viewBox="0 0 20 14" fill="none" xmlns="http://www.w3.org/2000/svg">
<path d="M10 0C4.05 0 0.21 6.14 0.14 6.25C0.05 6.37 0 6.52 0 6.67C0 6.8 0.04 6.92 0.11 7.03C0.12 7.05 3.35 13.33 10 13.33C16.63 13.33 19.84 7.12 19.88 7.04L19.89 7.03C19.96 6.92 20 6.8 20 6.67C20 6.52 19.95 6.37 19.86 6.26C19.79 6.14 15.95 0 10 0ZM10 2C12.58 2 14.67 4.09 14.67 6.67C14.67 9.25 12.58 11.34 10 11.34C7.42 11.34 5.33 9.24 5.33 6.67C5.33 4.1 7.42 2 10 2ZM10 4.67C8.9 4.67 8 5.57 8 6.67C8 7.77 8.9 8.67 10 8.67C11.1 8.67 12 7.77 12 6.67C12 5.57 11.1 4.67 10 4.67Z" fill="white" fill-opacity="0.2"/>
</svg>
